<mxfile host="app.diagrams.net" modified="2022-09-11T02:23:43.294Z" agent="5.0 (Windows NT 6.1; Win64; x64) AppleWebKit/537.36 (KHTML, like Gecko) Chrome/100.0.4896.127 Safari/537.36" etag="LtDCgWafWuLS2tEOKqS1" version="20.2.3" type="github">
  <diagram id="d3kX76iIKoJ4xAQK4GNq" name="第 1 页">
    <mxGraphModel dx="1422" dy="800" grid="1" gridSize="10" guides="1" tooltips="1" connect="1" arrows="1" fold="1" page="1" pageScale="1" pageWidth="827" pageHeight="1169" math="0" shadow="0">
      <root>
        <mxCell id="0" />
        <mxCell id="1" parent="0" />
        <mxCell id="ePfMNn7ndaOWINTpqlZt-8" style="edgeStyle=orthogonalEdgeStyle;rounded=0;orthogonalLoop=1;jettySize=auto;html=1;exitX=0.5;exitY=0;exitDx=0;exitDy=0;entryX=0.5;entryY=1;entryDx=0;entryDy=0;" edge="1" parent="1" source="ePfMNn7ndaOWINTpqlZt-1" target="ePfMNn7ndaOWINTpqlZt-7">
          <mxGeometry relative="1" as="geometry" />
        </mxCell>
        <mxCell id="ePfMNn7ndaOWINTpqlZt-13" style="edgeStyle=orthogonalEdgeStyle;rounded=0;orthogonalLoop=1;jettySize=auto;html=1;exitX=0.5;exitY=1;exitDx=0;exitDy=0;" edge="1" parent="1" source="ePfMNn7ndaOWINTpqlZt-1" target="ePfMNn7ndaOWINTpqlZt-11">
          <mxGeometry relative="1" as="geometry" />
        </mxCell>
        <mxCell id="ePfMNn7ndaOWINTpqlZt-19" style="edgeStyle=orthogonalEdgeStyle;rounded=0;orthogonalLoop=1;jettySize=auto;html=1;exitX=1;exitY=0.5;exitDx=0;exitDy=0;entryX=0;entryY=0.5;entryDx=0;entryDy=0;" edge="1" parent="1" source="ePfMNn7ndaOWINTpqlZt-1" target="ePfMNn7ndaOWINTpqlZt-4">
          <mxGeometry relative="1" as="geometry" />
        </mxCell>
        <mxCell id="ePfMNn7ndaOWINTpqlZt-1" value="身体稳定性" style="ellipse;whiteSpace=wrap;html=1;" vertex="1" parent="1">
          <mxGeometry x="240" y="410" width="120" height="65" as="geometry" />
        </mxCell>
        <mxCell id="ePfMNn7ndaOWINTpqlZt-10" style="edgeStyle=orthogonalEdgeStyle;rounded=0;orthogonalLoop=1;jettySize=auto;html=1;exitX=0.5;exitY=0;exitDx=0;exitDy=0;entryX=0.5;entryY=1;entryDx=0;entryDy=0;" edge="1" parent="1" source="ePfMNn7ndaOWINTpqlZt-2" target="ePfMNn7ndaOWINTpqlZt-4">
          <mxGeometry relative="1" as="geometry" />
        </mxCell>
        <mxCell id="ePfMNn7ndaOWINTpqlZt-17" style="edgeStyle=orthogonalEdgeStyle;rounded=0;orthogonalLoop=1;jettySize=auto;html=1;exitX=0.5;exitY=1;exitDx=0;exitDy=0;entryX=0.5;entryY=0;entryDx=0;entryDy=0;" edge="1" parent="1" source="ePfMNn7ndaOWINTpqlZt-2" target="ePfMNn7ndaOWINTpqlZt-14">
          <mxGeometry relative="1" as="geometry" />
        </mxCell>
        <mxCell id="ePfMNn7ndaOWINTpqlZt-18" style="edgeStyle=orthogonalEdgeStyle;rounded=0;orthogonalLoop=1;jettySize=auto;html=1;exitX=0.5;exitY=1;exitDx=0;exitDy=0;entryX=0.5;entryY=0;entryDx=0;entryDy=0;" edge="1" parent="1" source="ePfMNn7ndaOWINTpqlZt-2" target="ePfMNn7ndaOWINTpqlZt-15">
          <mxGeometry relative="1" as="geometry" />
        </mxCell>
        <mxCell id="ePfMNn7ndaOWINTpqlZt-2" value="收入稳定性" style="ellipse;whiteSpace=wrap;html=1;" vertex="1" parent="1">
          <mxGeometry x="440" y="410" width="120" height="60" as="geometry" />
        </mxCell>
        <mxCell id="ePfMNn7ndaOWINTpqlZt-24" style="edgeStyle=orthogonalEdgeStyle;rounded=0;orthogonalLoop=1;jettySize=auto;html=1;exitX=1;exitY=0.5;exitDx=0;exitDy=0;" edge="1" parent="1" source="ePfMNn7ndaOWINTpqlZt-4" target="ePfMNn7ndaOWINTpqlZt-20">
          <mxGeometry relative="1" as="geometry" />
        </mxCell>
        <mxCell id="ePfMNn7ndaOWINTpqlZt-25" style="edgeStyle=orthogonalEdgeStyle;rounded=0;orthogonalLoop=1;jettySize=auto;html=1;exitX=1;exitY=0.5;exitDx=0;exitDy=0;entryX=0;entryY=0.5;entryDx=0;entryDy=0;" edge="1" parent="1" source="ePfMNn7ndaOWINTpqlZt-4" target="ePfMNn7ndaOWINTpqlZt-23">
          <mxGeometry relative="1" as="geometry" />
        </mxCell>
        <mxCell id="ePfMNn7ndaOWINTpqlZt-4" value="房子" style="ellipse;whiteSpace=wrap;html=1;" vertex="1" parent="1">
          <mxGeometry x="440" y="260" width="120" height="60" as="geometry" />
        </mxCell>
        <mxCell id="ePfMNn7ndaOWINTpqlZt-22" style="edgeStyle=orthogonalEdgeStyle;rounded=0;orthogonalLoop=1;jettySize=auto;html=1;exitX=1;exitY=0;exitDx=0;exitDy=0;entryX=0.5;entryY=0;entryDx=0;entryDy=0;" edge="1" parent="1" source="ePfMNn7ndaOWINTpqlZt-7" target="ePfMNn7ndaOWINTpqlZt-4">
          <mxGeometry relative="1" as="geometry" />
        </mxCell>
        <mxCell id="ePfMNn7ndaOWINTpqlZt-7" value="对象成家" style="ellipse;whiteSpace=wrap;html=1;" vertex="1" parent="1">
          <mxGeometry x="240" y="220" width="120" height="60" as="geometry" />
        </mxCell>
        <mxCell id="ePfMNn7ndaOWINTpqlZt-11" value="血压" style="ellipse;whiteSpace=wrap;html=1;fillColor=#FF9933;" vertex="1" parent="1">
          <mxGeometry x="255" y="550" width="90" height="50" as="geometry" />
        </mxCell>
        <mxCell id="ePfMNn7ndaOWINTpqlZt-14" value="技术" style="ellipse;whiteSpace=wrap;html=1;" vertex="1" parent="1">
          <mxGeometry x="410" y="550" width="90" height="50" as="geometry" />
        </mxCell>
        <mxCell id="ePfMNn7ndaOWINTpqlZt-36" style="edgeStyle=orthogonalEdgeStyle;rounded=0;orthogonalLoop=1;jettySize=auto;html=1;exitX=0.5;exitY=1;exitDx=0;exitDy=0;entryX=0.5;entryY=0;entryDx=0;entryDy=0;" edge="1" parent="1" source="ePfMNn7ndaOWINTpqlZt-15" target="ePfMNn7ndaOWINTpqlZt-34">
          <mxGeometry relative="1" as="geometry" />
        </mxCell>
        <mxCell id="ePfMNn7ndaOWINTpqlZt-37" style="edgeStyle=orthogonalEdgeStyle;rounded=0;orthogonalLoop=1;jettySize=auto;html=1;exitX=0.5;exitY=1;exitDx=0;exitDy=0;" edge="1" parent="1" source="ePfMNn7ndaOWINTpqlZt-15" target="ePfMNn7ndaOWINTpqlZt-35">
          <mxGeometry relative="1" as="geometry" />
        </mxCell>
        <mxCell id="ePfMNn7ndaOWINTpqlZt-15" value="投资、资产配置" style="ellipse;whiteSpace=wrap;html=1;fillColor=#FF8000;" vertex="1" parent="1">
          <mxGeometry x="500" y="550" width="90" height="50" as="geometry" />
        </mxCell>
        <mxCell id="ePfMNn7ndaOWINTpqlZt-26" style="edgeStyle=orthogonalEdgeStyle;rounded=0;orthogonalLoop=1;jettySize=auto;html=1;exitX=0.5;exitY=1;exitDx=0;exitDy=0;entryX=1;entryY=0.5;entryDx=0;entryDy=0;" edge="1" parent="1" source="ePfMNn7ndaOWINTpqlZt-20" target="ePfMNn7ndaOWINTpqlZt-15">
          <mxGeometry relative="1" as="geometry">
            <Array as="points">
              <mxPoint x="665" y="250" />
              <mxPoint x="670" y="250" />
              <mxPoint x="670" y="575" />
            </Array>
          </mxGeometry>
        </mxCell>
        <mxCell id="ePfMNn7ndaOWINTpqlZt-20" value="首付" style="ellipse;whiteSpace=wrap;html=1;" vertex="1" parent="1">
          <mxGeometry x="610" y="225" width="110" height="50" as="geometry" />
        </mxCell>
        <mxCell id="ePfMNn7ndaOWINTpqlZt-31" style="edgeStyle=orthogonalEdgeStyle;rounded=0;orthogonalLoop=1;jettySize=auto;html=1;exitX=1;exitY=0.5;exitDx=0;exitDy=0;" edge="1" parent="1" source="ePfMNn7ndaOWINTpqlZt-23" target="ePfMNn7ndaOWINTpqlZt-30">
          <mxGeometry relative="1" as="geometry" />
        </mxCell>
        <mxCell id="ePfMNn7ndaOWINTpqlZt-23" value="房子选择" style="ellipse;whiteSpace=wrap;html=1;" vertex="1" parent="1">
          <mxGeometry x="610" y="300" width="110" height="50" as="geometry" />
        </mxCell>
        <mxCell id="ePfMNn7ndaOWINTpqlZt-27" value="VS" style="text;html=1;strokeColor=none;fillColor=none;align=center;verticalAlign=middle;whiteSpace=wrap;rounded=0;" vertex="1" parent="1">
          <mxGeometry x="640" y="410" width="60" height="30" as="geometry" />
        </mxCell>
        <mxCell id="ePfMNn7ndaOWINTpqlZt-28" value="" style="endArrow=classic;html=1;rounded=0;" edge="1" parent="1">
          <mxGeometry width="50" height="50" relative="1" as="geometry">
            <mxPoint x="230" y="20" as="sourcePoint" />
            <mxPoint x="790" y="20" as="targetPoint" />
          </mxGeometry>
        </mxCell>
        <mxCell id="ePfMNn7ndaOWINTpqlZt-29" value="时间" style="text;html=1;strokeColor=none;fillColor=none;align=center;verticalAlign=middle;whiteSpace=wrap;rounded=0;" vertex="1" parent="1">
          <mxGeometry x="480" width="60" height="30" as="geometry" />
        </mxCell>
        <mxCell id="ePfMNn7ndaOWINTpqlZt-30" value="装修" style="ellipse;whiteSpace=wrap;html=1;" vertex="1" parent="1">
          <mxGeometry x="750" y="310" width="60" height="30" as="geometry" />
        </mxCell>
        <mxCell id="ePfMNn7ndaOWINTpqlZt-34" value="股市" style="ellipse;whiteSpace=wrap;html=1;" vertex="1" parent="1">
          <mxGeometry x="460" y="660" width="90" height="50" as="geometry" />
        </mxCell>
        <mxCell id="ePfMNn7ndaOWINTpqlZt-35" value="保险" style="ellipse;whiteSpace=wrap;html=1;" vertex="1" parent="1">
          <mxGeometry x="550" y="660" width="90" height="50" as="geometry" />
        </mxCell>
        <mxCell id="ePfMNn7ndaOWINTpqlZt-38" value="周期" style="ellipse;whiteSpace=wrap;html=1;" vertex="1" parent="1">
          <mxGeometry x="430" y="800" width="50" height="30" as="geometry" />
        </mxCell>
        <mxCell id="ePfMNn7ndaOWINTpqlZt-39" value="杠杆" style="ellipse;whiteSpace=wrap;html=1;" vertex="1" parent="1">
          <mxGeometry x="490" y="800" width="50" height="30" as="geometry" />
        </mxCell>
        <mxCell id="ePfMNn7ndaOWINTpqlZt-40" value="跃迁" style="ellipse;whiteSpace=wrap;html=1;" vertex="1" parent="1">
          <mxGeometry x="370" y="930" width="50" height="30" as="geometry" />
        </mxCell>
        <mxCell id="ePfMNn7ndaOWINTpqlZt-41" value="自由" style="ellipse;whiteSpace=wrap;html=1;" vertex="1" parent="1">
          <mxGeometry x="450" y="30" width="120" height="60" as="geometry" />
        </mxCell>
      </root>
    </mxGraphModel>
  </diagram>
</mxfile>
